<svg xmlns="http://www.w3.org/2000/svg" width="1200" viewBox="0 0 900 225" height="300" version="1.0"><defs><clipPath id="618a318d97"><path d="M24 25.852h163v173.25H24Zm0 0"/></clipPath></defs><g clip-path="url('#618a318d97')"><path fill="#5271ff" d="M72.16 25.852c-.293.226-.574.453-.851.687.3-.23.597-.453.851-.687Zm66.14 0c.255.234.548.457.848.687a24.96 24.96 0 0 0-.847-.687Zm-67.042.726c-6.317 4.758-22.094 8.324-18.711 15.73 8.496 1.06 10.207-8.53 18.71-15.73Zm67.933 0c8.504 7.2 10.227 16.79 18.723 15.73 3.383-7.406-12.406-10.972-18.723-15.73ZM50.79 34.363c-7.95 6.684-8.621 11.645-5.937 15.809 7.148-5.883 3.16-7.324 5.937-15.809Zm108.875 0c2.774 8.485-1.203 9.926 5.941 15.809 2.688-4.164 2.004-9.125-5.94-15.809ZM42.508 43.445c-7.559 8.715-7.442 14.282-3.77 18.387 6.82-7.703 2.2-8.59 3.77-18.387Zm125.437 0c1.57 9.797-3.05 10.684 3.77 18.387 3.672-4.105 3.789-9.672-3.77-18.387Zm-107.992.86c-3.883 2.086-5.656.425-8.246 1.316-1.18.402-2.523 1.336-4.32 3.383 5.777 2.805 8.863-.793 12.566-4.7Zm90.555 0c3.707 3.906 6.789 7.504 12.566 4.699-1.797-2.047-3.144-2.98-4.324-3.383-2.594-.89-4.355.77-8.242-1.316Zm-96.219 8.453c-3.547 2.695-5.707 1.695-8.094 2.566-1.43.52-2.941 1.715-4.879 4.781 6.829 2.075 9.586-2.417 12.973-7.347Zm101.879 0c3.387 4.93 6.148 9.422 12.973 7.347-1.938-3.066-3.45-4.261-4.88-4.78-2.386-.868-4.546.128-8.093-2.567ZM34.824 55.03c-6.586 10.996-5.386 17.063-.578 20.848 5.977-9.746.75-9.824.578-20.848Zm140.817 0c-.168 11.024-5.395 11.102.582 20.848 4.808-3.785 6.007-9.852-.582-20.848ZM49.508 62.938c-5.375 5.816-8.703.601-12.778 10.554 7.872.95 10.024-4.508 12.778-10.555Zm111.441 0c2.754 6.046 4.91 11.503 12.781 10.554-4.078-9.953-7.402-4.738-12.78-10.555ZM28.652 69.19c-4.855 13.391-2.254 19.743 3.793 22.848 4.453-11.894-1.27-10.863-3.793-22.848Zm153.16 0c-2.523 11.985-8.246 10.954-3.792 22.848 6.046-3.105 8.648-9.457 3.792-22.848ZM46.36 74.7c-4.629 7.489-9.37 2.5-11.707 14.219 8.785-.633 9.989-7.035 11.707-14.219Zm117.746 0c1.72 7.184 2.922 13.586 11.708 14.219-2.336-11.719-7.079-6.73-11.708-14.219ZM24.758 85.633c-2.184 15.672 2.113 21.98 9.402 23.96 2.094-13.956-3.89-11.519-9.402-23.96Zm160.937 0c-5.511 12.441-11.484 10.004-9.39 23.96 7.289-1.98 11.574-8.288 9.39-23.96ZM45.281 87.535c-3.304 9.207-9.61 4.875-9.445 18.153 9.402-2.72 9.234-9.95 9.445-18.153Zm119.903 0c.21 8.203.039 15.434 9.441 18.153.168-13.278-6.14-8.946-9.441-18.153ZM47.137 102.22c-1.09 10.812-9.047 7.847-5.301 22.117 9.406-5.457 7.277-13.215 5.3-22.117Zm116.187 0c-1.976 8.902-4.11 16.66 5.301 22.117 3.746-14.27-4.215-11.305-5.3-22.117Zm-138.82 3.469c1.86 17.484 8.183 23.132 16.574 23.308-1.496-15.61-7.285-11.375-16.574-23.309Zm161.453 0c-9.289 11.933-15.086 7.699-16.582 23.308 8.39-.176 14.723-5.824 16.582-23.309Zm-133.164 10.69c1.941 11.919-7.457 11.013.668 25.247 8.527-8.559 4.012-16.262-.668-25.246Zm104.875 0c-4.684 8.985-9.207 16.688-.68 25.247 8.125-14.234-1.265-13.328.68-25.246ZM29.488 126.59c7.024 18.234 15.442 22.476 24.496 20.25-6.097-16.32-11.093-10.113-24.496-20.25Zm151.469 0c-13.398 10.137-18.39 3.93-24.484 20.25 9.054 2.226 17.46-2.016 24.484-20.25Zm-118.578 2.64c5.726 12.133-4.586 14.055 8.453 26.766 6.484-11.754-.7-18.605-8.453-26.766Zm85.687 0c-7.75 8.165-14.937 15.012-8.453 26.766 13.04-12.715 2.73-14.633 8.453-26.766Zm-72.484 10.254c10.027 11.032-.309 16.422 17.676 25.696 3.074-14.598-6.785-19.543-17.676-25.696Zm59.29 0c-10.888 6.153-20.747 11.098-17.677 25.696 17.989-9.274 7.653-14.664 17.676-25.696Zm-94.24 7.801C53.72 164.605 64 166.563 72.993 161.41c-11.508-15.566-14.941-7.402-32.36-14.125Zm129.18 0c-17.417 6.723-20.843-1.441-32.351 14.125 8.992 5.153 19.266 3.195 32.351-14.125Zm-87.917 16.25c-5.934-.02-11.27 3.074-23.555 2.192 19.531 14.156 31.094 12.89 38.972 4.496-7.019-5.2-11.359-6.672-15.417-6.688Zm46.656 0c-4.059.016-8.39 1.488-15.41 6.688 7.879 8.394 19.441 9.66 38.972-4.496-12.285.882-17.629-2.211-23.562-2.192Zm-28.88 7.5a93.228 93.228 0 0 0 4.196 3.621c-11.265 5.512-26.781 12.867-30.355 12.285l2.96 12.207c-.05-7.652 13.848-11.41 28.989-23.218 15.144 11.808 29.039 15.562 28.992 23.218l2.957-12.207c-3.574.582-19.086-6.773-30.355-12.285a93.23 93.23 0 0 0 4.195-3.62c-1.621.788-3.637 1.784-5.79 2.843-2.147-1.055-4.17-2.055-5.788-2.844Zm0 0"/></g><path d="M256.742 81.906v14.766h-6.922c-.813-3.832-2.106-6.656-3.875-8.469-1.762-1.82-4.07-2.734-6.922-2.734-5.367 0-9.422 2.574-12.172 7.719-2.75 5.148-4.125 12.777-4.125 22.89 0 9.418 1.254 16.547 3.766 21.39 2.508 4.837 6.191 7.25 11.047 7.25 2.476 0 4.5-.413 6.062-1.25 1.563-.831 2.813-2.081 3.75-3.75.938-1.663 1.742-4.007 2.422-7.03h6.969v15.437c-3.73.887-7.14 1.531-10.235 1.938-3.093.406-6.304.609-9.625.609-7.062 0-12.828-1.27-17.297-3.812-4.468-2.551-7.765-6.399-9.89-11.547-2.117-5.145-3.172-11.657-3.172-19.532 0-7.375 1.242-13.785 3.734-19.234 2.5-5.445 6.176-9.645 11.032-12.594 4.851-2.957 10.66-4.437 17.421-4.437 3.438 0 6.547.187 9.329.562 2.78.367 5.68.977 8.703 1.828ZM295.559 143.188l-.766-.25c-2.781 2.71-5.492 4.68-8.125 5.906-2.625 1.219-5.418 1.828-8.375 1.828-2.918 0-5.453-.531-7.61-1.594-2.156-1.07-3.789-2.554-4.89-4.453-1.106-1.906-1.656-4.098-1.656-6.578 0-5 2.453-8.93 7.359-11.797 4.906-2.875 12.348-4.68 22.328-5.422v-4.843c0-3.157-.36-5.594-1.078-7.313-.71-1.719-1.625-2.922-2.75-3.61-1.117-.695-2.453-1.046-4.016-1.046-1.562 0-2.914.273-4.046.812-1.137.543-2.165 1.57-3.079 3.078-.918 1.512-1.601 3.61-2.046 6.297h-9.625v-9.281c3.125-1.383 5.722-2.453 7.796-3.203a58.882 58.882 0 0 1 6.141-1.86c2.02-.488 3.828-.832 5.422-1.03a37.186 37.186 0 0 1 4.797-.313c4.101 0 7.383.543 9.844 1.625 2.468 1.086 4.312 2.851 5.53 5.297 1.227 2.449 1.845 5.828 1.845 10.14v19.86c0 2.25.046 3.984.14 5.203.102 1.219.266 2.125.485 2.719.226.593.507 1.074.843 1.437.344.355.758.64 1.25.86.489.218 1.414.5 2.782.843v3.36h-18.954Zm-1.672-17.375c-5.274.136-9.172 1.12-11.703 2.953-2.532 1.836-3.797 4.515-3.797 8.047 0 2.117.578 3.726 1.734 4.828 1.156 1.094 2.754 1.64 4.797 1.64 1.562 0 3.035-.41 4.422-1.234a9.245 9.245 0 0 0 3.312-3.344c.82-1.394 1.235-2.875 1.235-4.437ZM367.387 140.594c-3.47 3.668-6.903 6.266-10.297 7.797-3.399 1.52-7.305 2.281-11.72 2.281-7.905 0-13.855-2.16-17.843-6.484-3.992-4.332-5.984-10.766-5.984-19.297 0-5.5 1.023-10.242 3.078-14.235 2.05-3.988 4.96-7.007 8.734-9.062 3.77-2.05 8.149-3.078 13.14-3.078 3.095 0 5.802.36 8.126 1.078 2.332.71 4.328 1.7 5.984 2.969a16.446 16.446 0 0 1 4.125 4.609c1.29 2.137 2.258 4.578 2.907 7.328.675 2.824 1.035 6.242 1.078 10.25h-32.297c.031 6.149 1.125 10.672 3.281 13.578 2.156 2.899 5.441 4.344 9.86 4.344 2.581 0 4.906-.484 6.968-1.453 2.07-.969 4.317-2.672 6.735-5.11Zm-13.75-21.344c-.137-5.195-.82-9.066-2.047-11.61-1.22-2.55-3.188-3.827-5.907-3.827-2.617 0-4.699 1.324-6.25 3.968-1.543 2.649-2.464 6.47-2.765 11.47ZM383.225 136.11c.812 3.085 2.097 5.402 3.86 6.953 1.769 1.543 4.132 2.312 7.093 2.312 2.539 0 4.46-.578 5.766-1.734 1.312-1.156 1.968-2.836 1.968-5.047 0-1.383-.297-2.567-.89-3.547-.594-.988-1.578-1.93-2.953-2.828-1.375-.906-3.727-2.086-7.047-3.547a47.424 47.424 0 0 1-5.282-2.703c-1.648-.988-3.085-2.102-4.312-3.344a14.693 14.693 0 0 1-2.89-4.14c-.712-1.532-1.063-3.227-1.063-5.094 0-3.063.879-5.711 2.64-7.953 1.77-2.239 4.29-3.953 7.563-5.141 3.281-1.187 7.023-1.781 11.234-1.781 2.477 0 4.907.105 7.282.312 2.382.2 5.457.637 9.218 1.313v11.875h-6.718c-.782-2.176-1.641-3.86-2.579-5.047-.93-1.188-1.953-2.008-3.078-2.469-1.117-.457-2.453-.687-4.015-.687-2.25 0-4.04.511-5.36 1.53-1.324 1.013-1.984 2.434-1.984 4.267 0 1.292.234 2.398.703 3.312.477.918 1.328 1.813 2.547 2.688 1.227.867 3.594 2.027 7.094 3.484 3.187 1.324 5.78 2.71 7.78 4.156 2.009 1.438 3.54 3.102 4.595 4.985 1.05 1.886 1.578 4.085 1.578 6.593 0 2.75-.512 5.121-1.531 7.11a13.29 13.29 0 0 1-4.266 4.922c-1.836 1.292-4.04 2.25-6.61 2.875-2.562.625-5.386.937-8.468.937-5.606 0-11.84-.797-18.703-2.39V136.11ZM454.638 143.188l-.766-.25c-2.781 2.71-5.492 4.68-8.125 5.906-2.625 1.219-5.418 1.828-8.375 1.828-2.918 0-5.453-.531-7.61-1.594-2.156-1.07-3.788-2.554-4.89-4.453-1.105-1.906-1.656-4.098-1.656-6.578 0-5 2.453-8.93 7.36-11.797 4.905-2.875 12.347-4.68 22.327-5.422v-4.843c0-3.157-.359-5.594-1.078-7.313-.71-1.719-1.625-2.922-2.75-3.61-1.117-.695-2.453-1.046-4.015-1.046-1.563 0-2.914.273-4.047.812-1.137.543-2.164 1.57-3.078 3.078-.918 1.512-1.602 3.61-2.047 6.297h-9.625v-9.281c3.125-1.383 5.722-2.453 7.797-3.203a58.882 58.882 0 0 1 6.14-1.86c2.02-.488 3.828-.832 5.422-1.03a37.186 37.186 0 0 1 4.797-.313c4.102 0 7.383.543 9.844 1.625 2.468 1.086 4.312 2.851 5.531 5.297 1.227 2.449 1.844 5.828 1.844 10.14v19.86c0 2.25.047 3.984.14 5.203.102 1.219.266 2.125.485 2.719.226.593.508 1.074.843 1.437.344.355.758.64 1.25.86.489.218 1.415.5 2.782.843v3.36h-18.953Zm-1.672-17.375c-5.274.136-9.172 1.12-11.703 2.953-2.532 1.836-3.797 4.515-3.797 8.047 0 2.117.578 3.726 1.734 4.828 1.156 1.094 2.754 1.64 4.797 1.64 1.563 0 3.035-.41 4.422-1.234a9.245 9.245 0 0 0 3.312-3.344c.82-1.394 1.235-2.875 1.235-4.437ZM499.356 106.61l.672.156c2.477-2.926 5.024-5.031 7.64-6.313 2.614-1.289 5.446-1.937 8.5-1.937 2.071 0 4.25.219 6.532.656v14.063h-9.219c-.586-1.97-1.343-3.477-2.28-4.532-.93-1.05-2.173-1.578-3.735-1.578-.75 0-1.578.23-2.485.688-.898.46-1.726 1.105-2.484 1.937-.762.824-1.305 1.672-1.625 2.547-.324.867-.54 1.742-.64 2.625-.106.875-.157 2.2-.157 3.969v16.25c0 3.23.117 5.492.36 6.781.238 1.281.71 2.29 1.421 3.016.72.73 1.926 1.25 3.625 1.562v3.36h-25.125v-3.36c1.633-.445 2.766-1.023 3.391-1.734.633-.707 1.062-1.672 1.281-2.89.219-1.227.328-3.458.328-6.688V114.25c0-2.508-.043-4.367-.125-5.578-.086-1.207-.289-2.176-.609-2.906a4.238 4.238 0 0 0-1.484-1.781c-.668-.458-1.813-.852-3.438-1.188v-3.469l13.953-.406h6.422ZM602.56 81.906v14.766h-6.922c-.813-3.832-2.106-6.656-3.875-8.469-1.762-1.82-4.07-2.734-6.922-2.734-5.367 0-9.422 2.574-12.172 7.719-2.75 5.148-4.125 12.777-4.125 22.89 0 9.418 1.254 16.547 3.766 21.39 2.507 4.837 6.19 7.25 11.046 7.25 2.477 0 4.5-.413 6.063-1.25 1.562-.831 2.812-2.081 3.75-3.75.937-1.663 1.742-4.007 2.422-7.03h6.969v15.437c-3.73.887-7.141 1.531-10.235 1.938-3.094.406-6.305.609-9.625.609-7.062 0-12.828-1.27-17.297-3.812-4.468-2.551-7.765-6.399-9.89-11.547-2.118-5.145-3.172-11.657-3.172-19.532 0-7.375 1.242-13.785 3.734-19.234 2.5-5.445 6.176-9.645 11.031-12.594 4.852-2.957 10.66-4.437 17.422-4.437 3.438 0 6.547.187 9.328.562 2.782.367 5.68.977 8.704 1.828ZM630.58 79v12.485h-13.954V79Zm-19.36 67.5c1.664-.445 2.813-1.023 3.438-1.734.632-.707 1.062-1.672 1.28-2.89.22-1.227.329-3.458.329-6.688V111.5c0-1.664-.078-3.004-.234-4.015-.149-1.02-.434-1.836-.86-2.454a4.115 4.115 0 0 0-1.734-1.406c-.73-.32-1.672-.598-2.828-.828v-3.469l14.015-.406h6.36v36.219c0 1.898.023 3.367.078 4.406.05 1.031.125 1.828.219 2.39.101.563.25 1.071.437 1.516.188.438.43.844.734 1.219.313.367.754.703 1.329 1.016.582.304 1.347.574 2.296.812v3.36H611.22ZM663.133 158.985c0 2.539.133 4.335.407 5.39.27 1.05.754 1.883 1.453 2.5.695.613 1.926 1.125 3.687 1.531v3.36h-25.375v-3.36c1.602-.48 2.72-1.011 3.344-1.593.625-.575 1.07-1.383 1.344-2.422.281-1.031.422-2.836.422-5.406v-44.579c0-2.414-.028-4.129-.078-5.14-.055-1.02-.172-1.883-.36-2.594-.187-.719-.453-1.305-.797-1.766-.336-.457-.836-.851-1.5-1.187-.656-.344-1.632-.649-2.922-.922v-3.469l14.11-.406h6.265l-.765 7.375.61.156c2.913-2.812 5.64-4.836 8.171-6.078 2.531-1.238 5.14-1.86 7.828-1.86 6.04 0 10.57 2.134 13.594 6.391 3.02 4.262 4.531 10.637 4.531 19.125 0 5.875-.89 10.793-2.672 14.75-1.78 3.961-4.437 6.934-7.968 8.922-3.532 1.98-7.883 2.969-13.047 2.969-3.5 0-6.93-.445-10.282-1.328Zm0-25.829c0 4.18.72 7.262 2.157 9.25 1.445 1.98 3.68 2.97 6.703 2.97 3.125 0 5.508-1.634 7.156-4.907 1.645-3.281 2.469-7.961 2.469-14.047 0-6.758-.742-11.766-2.219-15.016-1.469-3.257-3.766-4.89-6.89-4.89-1.532 0-3.024.39-4.47 1.172-1.437.773-2.616 1.882-3.53 3.328-.919 1.449-1.376 3.07-1.376 4.86ZM725.634 106.047c3.082-2.75 5.836-4.691 8.265-5.828 2.438-1.133 4.926-1.703 7.47-1.703 3.737 0 6.624.687 8.655 2.062 2.04 1.375 3.524 3.356 4.453 5.938.938 2.574 1.407 5.918 1.407 10.031v18.594c0 1.492.023 2.89.078 4.203.05 1.305.176 2.344.375 3.125.207.781.488 1.422.844 1.922.363.492.867.906 1.515 1.25.645.336 1.426.62 2.344.86v3.359h-24.719v-3.36c1.602-.375 2.703-.914 3.297-1.625.594-.719 1-1.703 1.219-2.953.219-1.258.328-3.504.328-6.734V121.89c0-3.395-.11-6.035-.328-7.922-.219-1.883-.594-3.344-1.125-4.375-.524-1.04-1.2-1.813-2.031-2.313-.836-.507-1.93-.765-3.282-.765-1.293 0-2.648.402-4.062 1.203a10.387 10.387 0 0 0-3.516 3.25c-.93 1.375-1.39 2.844-1.39 4.406v19.766c0 1.898.02 3.367.062 4.406.05 1.031.129 1.828.234 2.39.102.563.25 1.071.438 1.516.187.438.43.844.734 1.219.313.367.754.703 1.328 1.016.57.304 1.336.574 2.297.812v3.36h-24.968v-3.36c1.02-.238 1.816-.52 2.39-.844.582-.32 1.035-.691 1.36-1.109.32-.426.597-.973.828-1.64.238-.665.394-1.583.468-2.75.07-1.176.11-2.848.11-5.016V95.406c0-2.925-.028-5.078-.078-6.453-.055-1.375-.168-2.523-.344-3.453-.168-.937-.422-1.687-.766-2.25-.336-.562-.824-1.008-1.468-1.344-.649-.343-1.684-.648-3.11-.921v-3.36l14.11-.719h6.375V106ZM814.724 140.594c-3.47 3.668-6.903 6.266-10.297 7.797-3.399 1.52-7.305 2.281-11.719 2.281-7.906 0-13.855-2.16-17.844-6.484-3.992-4.332-5.984-10.766-5.984-19.297 0-5.5 1.023-10.242 3.078-14.235 2.05-3.988 4.96-7.007 8.734-9.062 3.77-2.05 8.149-3.078 13.141-3.078 3.094 0 5.8.36 8.125 1.078 2.332.71 4.328 1.7 5.984 2.969a16.446 16.446 0 0 1 4.125 4.609c1.29 2.137 2.258 4.578 2.907 7.328.675 2.824 1.035 6.242 1.078 10.25h-32.297c.031 6.149 1.125 10.672 3.281 13.578 2.156 2.899 5.442 4.344 9.86 4.344 2.582 0 4.906-.484 6.968-1.453 2.07-.969 4.317-2.672 6.735-5.11Zm-13.75-21.344c-.137-5.195-.82-9.066-2.047-11.61-1.219-2.55-3.188-3.827-5.907-3.827-2.617 0-4.699 1.324-6.25 3.968-1.542 2.649-2.464 6.47-2.765 11.47ZM842.984 106.61l.672.156c2.476-2.926 5.023-5.031 7.64-6.313 2.614-1.289 5.446-1.937 8.5-1.937 2.07 0 4.25.219 6.532.656v14.063h-9.22c-.585-1.97-1.343-3.477-2.28-4.532-.93-1.05-2.172-1.578-3.735-1.578-.75 0-1.578.23-2.484.688-.899.46-1.727 1.105-2.485 1.937-.761.824-1.304 1.672-1.625 2.547-.324.867-.539 1.742-.64 2.625-.106.875-.156 2.2-.156 3.969v16.25c0 3.23.117 5.492.359 6.781.238 1.281.71 2.29 1.422 3.016.719.73 1.926 1.25 3.625 1.562v3.36h-25.125v-3.36c1.633-.445 2.765-1.023 3.39-1.734.633-.707 1.063-1.672 1.282-2.89.218-1.227.328-3.458.328-6.688V114.25c0-2.508-.043-4.367-.125-5.578-.086-1.207-.29-2.176-.61-2.906a4.238 4.238 0 0 0-1.484-1.781c-.668-.458-1.812-.852-3.437-1.188v-3.469l13.953-.406h6.422Zm0 0" fill="#5271ff"/></svg>