<svg xmlns="http://www.w3.org/2000/svg" xmlns:xlink="http://www.w3.org/1999/xlink" width="1200" zoomAndPan="magnify" viewBox="0 0 900 225" height="300" preserveAspectRatio="xMidYMid meet" version="1.0"><defs><g/><clipPath id="618a318d97"><path d="M 24 25.851562 L 187 25.851562 L 187 199.101562 L 24 199.101562 Z M 24 25.851562 " clip-rule="nonzero"/></clipPath></defs><g clip-path="url(#618a318d97)"><path fill="#5271ff" d="M 72.160156 25.851562 C 71.867188 26.078125 71.585938 26.304688 71.308594 26.539062 C 71.609375 26.308594 71.90625 26.085938 72.160156 25.851562 Z M 138.300781 25.851562 C 138.554688 26.085938 138.847656 26.308594 139.148438 26.539062 C 138.875 26.304688 138.589844 26.078125 138.300781 25.851562 Z M 71.257812 26.578125 C 64.941406 31.335938 49.164062 34.902344 52.546875 42.308594 C 61.042969 43.367188 62.753906 33.777344 71.257812 26.578125 Z M 139.191406 26.578125 C 147.695312 33.777344 149.417969 43.367188 157.914062 42.308594 C 161.296875 34.902344 145.507812 31.335938 139.191406 26.578125 Z M 50.789062 34.363281 C 42.839844 41.046875 42.167969 46.007812 44.851562 50.171875 C 52 44.289062 48.011719 42.847656 50.789062 34.363281 Z M 159.664062 34.363281 C 162.4375 42.847656 158.460938 44.289062 165.605469 50.171875 C 168.292969 46.007812 167.609375 41.046875 159.664062 34.363281 Z M 42.507812 43.445312 C 34.949219 52.160156 35.066406 57.726562 38.738281 61.832031 C 45.558594 54.128906 40.9375 53.242188 42.507812 43.445312 Z M 167.945312 43.445312 C 169.515625 53.242188 164.894531 54.128906 171.714844 61.832031 C 175.386719 57.726562 175.503906 52.160156 167.945312 43.445312 Z M 59.953125 44.304688 C 56.070312 46.390625 54.296875 44.730469 51.707031 45.621094 C 50.527344 46.023438 49.183594 46.957031 47.386719 49.003906 C 53.164062 51.808594 56.25 48.210938 59.953125 44.304688 Z M 150.507812 44.304688 C 154.214844 48.210938 157.296875 51.808594 163.074219 49.003906 C 161.277344 46.957031 159.929688 46.023438 158.75 45.621094 C 156.15625 44.730469 154.394531 46.390625 150.507812 44.304688 Z M 54.289062 52.757812 C 50.742188 55.453125 48.582031 54.453125 46.195312 55.324219 C 44.765625 55.84375 43.253906 57.039062 41.316406 60.105469 C 48.144531 62.179688 50.902344 57.6875 54.289062 52.757812 Z M 156.167969 52.757812 C 159.554688 57.6875 162.316406 62.179688 169.140625 60.105469 C 167.203125 57.039062 165.691406 55.84375 164.261719 55.324219 C 161.875 54.457031 159.714844 55.453125 156.167969 52.757812 Z M 34.824219 55.03125 C 28.238281 66.027344 29.4375 72.09375 34.246094 75.878906 C 40.222656 66.132812 34.996094 66.054688 34.824219 55.03125 Z M 175.640625 55.03125 C 175.472656 66.054688 170.246094 66.132812 176.222656 75.878906 C 181.03125 72.09375 182.230469 66.027344 175.640625 55.03125 Z M 49.507812 62.9375 C 44.132812 68.753906 40.804688 63.539062 36.730469 73.492188 C 44.601562 74.441406 46.753906 68.984375 49.507812 62.9375 Z M 160.949219 62.9375 C 163.703125 68.984375 165.859375 74.441406 173.730469 73.492188 C 169.652344 63.539062 166.328125 68.753906 160.949219 62.9375 Z M 28.652344 69.191406 C 23.796875 82.582031 26.398438 88.933594 32.445312 92.039062 C 36.898438 80.144531 31.175781 81.175781 28.652344 69.191406 Z M 181.8125 69.191406 C 179.289062 81.175781 173.566406 80.144531 178.019531 92.039062 C 184.066406 88.933594 186.667969 82.582031 181.8125 69.191406 Z M 46.359375 74.699219 C 41.730469 82.1875 36.988281 77.199219 34.652344 88.917969 C 43.4375 88.285156 44.640625 81.882812 46.359375 74.699219 Z M 164.105469 74.699219 C 165.824219 81.882812 167.027344 88.285156 175.8125 88.917969 C 173.476562 77.199219 168.734375 82.1875 164.105469 74.699219 Z M 24.757812 85.632812 C 22.574219 101.304688 26.871094 107.613281 34.160156 109.59375 C 36.253906 95.636719 30.269531 98.074219 24.757812 85.632812 Z M 185.695312 85.632812 C 180.183594 98.074219 174.210938 95.636719 176.304688 109.59375 C 183.59375 107.613281 187.878906 101.304688 185.695312 85.632812 Z M 45.28125 87.535156 C 41.976562 96.742188 35.671875 92.410156 35.835938 105.6875 C 45.238281 102.96875 45.070312 95.738281 45.28125 87.535156 Z M 165.183594 87.535156 C 165.394531 95.738281 165.222656 102.96875 174.625 105.6875 C 174.792969 92.410156 168.484375 96.742188 165.183594 87.535156 Z M 47.136719 102.21875 C 46.046875 113.03125 38.089844 110.066406 41.835938 124.335938 C 51.242188 118.878906 49.113281 111.121094 47.136719 102.21875 Z M 163.324219 102.21875 C 161.347656 111.121094 159.214844 118.878906 168.625 124.335938 C 172.371094 110.066406 164.410156 113.03125 163.324219 102.21875 Z M 24.503906 105.6875 C 26.363281 123.171875 32.6875 128.820312 41.078125 128.996094 C 39.582031 113.386719 33.792969 117.621094 24.503906 105.6875 Z M 185.957031 105.6875 C 176.667969 117.621094 170.871094 113.386719 169.375 128.996094 C 177.765625 128.820312 184.097656 123.171875 185.957031 105.6875 Z M 52.792969 116.378906 C 54.734375 128.296875 45.335938 127.390625 53.460938 141.625 C 61.988281 133.066406 57.472656 125.363281 52.792969 116.378906 Z M 157.667969 116.378906 C 152.984375 125.363281 148.460938 133.066406 156.988281 141.625 C 165.113281 127.390625 155.722656 128.296875 157.667969 116.378906 Z M 29.488281 126.589844 C 36.511719 144.824219 44.929688 149.066406 53.984375 146.839844 C 47.886719 130.519531 42.890625 136.726562 29.488281 126.589844 Z M 180.957031 126.589844 C 167.558594 136.726562 162.566406 130.519531 156.472656 146.839844 C 165.527344 149.066406 173.933594 144.824219 180.957031 126.589844 Z M 62.378906 129.230469 C 68.105469 141.363281 57.792969 143.285156 70.832031 155.996094 C 77.316406 144.242188 70.132812 137.390625 62.378906 129.230469 Z M 148.066406 129.230469 C 140.316406 137.394531 133.128906 144.242188 139.613281 155.996094 C 152.652344 143.28125 142.34375 141.363281 148.066406 129.230469 Z M 75.582031 139.484375 C 85.609375 150.515625 75.273438 155.90625 93.257812 165.179688 C 96.332031 150.582031 86.472656 145.636719 75.582031 139.484375 Z M 134.871094 139.484375 C 123.984375 145.636719 114.125 150.582031 117.195312 165.179688 C 135.183594 155.90625 124.847656 150.515625 134.871094 139.484375 Z M 40.632812 147.285156 C 53.71875 164.605469 64 166.5625 72.992188 161.410156 C 61.484375 145.84375 58.050781 154.007812 40.632812 147.285156 Z M 169.8125 147.285156 C 152.394531 154.007812 148.96875 145.84375 137.460938 161.410156 C 146.453125 166.5625 156.726562 164.605469 169.8125 147.285156 Z M 81.894531 163.535156 C 75.960938 163.515625 70.625 166.609375 58.339844 165.726562 C 77.871094 179.882812 89.433594 178.617188 97.3125 170.222656 C 90.292969 165.023438 85.953125 163.550781 81.894531 163.535156 Z M 128.550781 163.535156 C 124.492188 163.550781 120.160156 165.023438 113.140625 170.222656 C 121.019531 178.617188 132.582031 179.882812 152.113281 165.726562 C 139.828125 166.609375 134.484375 163.515625 128.550781 163.535156 Z M 99.671875 171.035156 C 101.070312 172.320312 102.472656 173.519531 103.867188 174.65625 C 92.601562 180.167969 77.085938 187.523438 73.511719 186.941406 L 76.472656 199.148438 C 76.421875 191.496094 90.320312 187.738281 105.460938 175.929688 C 120.605469 187.738281 134.5 191.492188 134.453125 199.148438 L 137.410156 186.941406 C 133.835938 187.523438 118.324219 180.167969 107.054688 174.65625 C 108.449219 173.519531 109.851562 172.320312 111.25 171.035156 C 109.628906 171.824219 107.613281 172.820312 105.460938 173.878906 C 103.3125 172.824219 101.289062 171.824219 99.671875 171.035156 Z M 99.671875 171.035156 " fill-opacity="1" fill-rule="nonzero"/></g><g fill="#5271ff" fill-opacity="1"><g transform="translate(201.272997, 149.859529)"><g><path d="M 55.46875 -67.953125 L 55.46875 -53.1875 L 48.546875 -53.1875 C 47.734375 -57.019531 46.441406 -59.84375 44.671875 -61.65625 C 42.910156 -63.476562 40.601562 -64.390625 37.75 -64.390625 C 32.382812 -64.390625 28.328125 -61.816406 25.578125 -56.671875 C 22.828125 -51.523438 21.453125 -43.894531 21.453125 -33.78125 C 21.453125 -24.363281 22.707031 -17.234375 25.21875 -12.390625 C 27.726562 -7.554688 31.410156 -5.140625 36.265625 -5.140625 C 38.742188 -5.140625 40.765625 -5.554688 42.328125 -6.390625 C 43.890625 -7.222656 45.140625 -8.472656 46.078125 -10.140625 C 47.015625 -11.804688 47.820312 -14.148438 48.5 -17.171875 L 55.46875 -17.171875 L 55.46875 -1.734375 C 51.738281 -0.847656 48.328125 -0.203125 45.234375 0.203125 C 42.140625 0.609375 38.929688 0.8125 35.609375 0.8125 C 28.546875 0.8125 22.78125 -0.457031 18.3125 -3 C 13.84375 -5.550781 10.546875 -9.398438 8.421875 -14.546875 C 6.304688 -19.691406 5.25 -26.203125 5.25 -34.078125 C 5.25 -41.453125 6.492188 -47.863281 8.984375 -53.3125 C 11.484375 -58.757812 15.160156 -62.957031 20.015625 -65.90625 C 24.867188 -68.863281 30.675781 -70.34375 37.4375 -70.34375 C 40.875 -70.34375 43.984375 -70.15625 46.765625 -69.78125 C 49.546875 -69.414062 52.445312 -68.804688 55.46875 -67.953125 Z M 55.46875 -67.953125 "/></g></g></g><g fill="#5271ff" fill-opacity="1"><g transform="translate(261.074149, 149.859529)"><g><path d="M 34.484375 -6.671875 L 33.71875 -6.921875 C 30.9375 -4.210938 28.226562 -2.242188 25.59375 -1.015625 C 22.96875 0.203125 20.175781 0.8125 17.21875 0.8125 C 14.300781 0.8125 11.765625 0.28125 9.609375 -0.78125 C 7.453125 -1.851562 5.820312 -3.335938 4.71875 -5.234375 C 3.613281 -7.140625 3.0625 -9.332031 3.0625 -11.8125 C 3.0625 -16.8125 5.515625 -20.742188 10.421875 -23.609375 C 15.328125 -26.484375 22.769531 -28.289062 32.75 -29.03125 L 32.75 -33.875 C 32.75 -37.03125 32.390625 -39.46875 31.671875 -41.1875 C 30.960938 -42.90625 30.046875 -44.109375 28.921875 -44.796875 C 27.804688 -45.492188 26.46875 -45.84375 24.90625 -45.84375 C 23.34375 -45.84375 21.992188 -45.570312 20.859375 -45.03125 C 19.722656 -44.488281 18.695312 -43.460938 17.78125 -41.953125 C 16.863281 -40.441406 16.179688 -38.34375 15.734375 -35.65625 L 6.109375 -35.65625 L 6.109375 -44.9375 C 9.234375 -46.320312 11.832031 -47.390625 13.90625 -48.140625 C 15.976562 -48.890625 18.023438 -49.507812 20.046875 -50 C 22.066406 -50.488281 23.875 -50.832031 25.46875 -51.03125 C 27.0625 -51.238281 28.660156 -51.34375 30.265625 -51.34375 C 34.367188 -51.34375 37.648438 -50.800781 40.109375 -49.71875 C 42.578125 -48.632812 44.421875 -46.867188 45.640625 -44.421875 C 46.867188 -41.972656 47.484375 -38.59375 47.484375 -34.28125 L 47.484375 -14.421875 C 47.484375 -12.171875 47.53125 -10.4375 47.625 -9.21875 C 47.726562 -8 47.890625 -7.09375 48.109375 -6.5 C 48.335938 -5.90625 48.617188 -5.425781 48.953125 -5.0625 C 49.296875 -4.707031 49.710938 -4.421875 50.203125 -4.203125 C 50.691406 -3.984375 51.617188 -3.703125 52.984375 -3.359375 L 52.984375 0 L 34.03125 0 Z M 32.8125 -24.046875 C 27.539062 -23.910156 23.640625 -22.925781 21.109375 -21.09375 C 18.578125 -19.257812 17.3125 -16.578125 17.3125 -13.046875 C 17.3125 -10.929688 17.890625 -9.320312 19.046875 -8.21875 C 20.203125 -7.125 21.800781 -6.578125 23.84375 -6.578125 C 25.40625 -6.578125 26.878906 -6.988281 28.265625 -7.8125 C 29.660156 -8.644531 30.765625 -9.757812 31.578125 -11.15625 C 32.398438 -12.550781 32.8125 -14.03125 32.8125 -15.59375 Z M 32.8125 -24.046875 "/></g></g></g><g fill="#5271ff" fill-opacity="1"><g transform="translate(316.902141, 149.859529)"><g><path d="M 50.484375 -9.265625 C 47.015625 -5.597656 43.582031 -3 40.1875 -1.46875 C 36.789062 0.0507812 32.882812 0.8125 28.46875 0.8125 C 20.5625 0.8125 14.613281 -1.347656 10.625 -5.671875 C 6.632812 -10.003906 4.640625 -16.4375 4.640625 -24.96875 C 4.640625 -30.46875 5.664062 -35.210938 7.71875 -39.203125 C 9.769531 -43.191406 12.679688 -46.210938 16.453125 -48.265625 C 20.222656 -50.316406 24.601562 -51.34375 29.59375 -51.34375 C 32.6875 -51.34375 35.394531 -50.984375 37.71875 -50.265625 C 40.050781 -49.554688 42.046875 -48.566406 43.703125 -47.296875 C 45.367188 -46.023438 46.742188 -44.488281 47.828125 -42.6875 C 49.117188 -40.550781 50.085938 -38.109375 50.734375 -35.359375 C 51.410156 -32.535156 51.769531 -29.117188 51.8125 -25.109375 L 19.515625 -25.109375 C 19.546875 -18.960938 20.640625 -14.4375 22.796875 -11.53125 C 24.953125 -8.632812 28.238281 -7.1875 32.65625 -7.1875 C 35.238281 -7.1875 37.5625 -7.671875 39.625 -8.640625 C 41.695312 -9.609375 43.941406 -11.3125 46.359375 -13.75 Z M 36.734375 -30.609375 C 36.597656 -35.804688 35.914062 -39.675781 34.6875 -42.21875 C 33.46875 -44.769531 31.5 -46.046875 28.78125 -46.046875 C 26.164062 -46.046875 24.082031 -44.722656 22.53125 -42.078125 C 20.988281 -39.429688 20.066406 -35.609375 19.765625 -30.609375 Z M 36.734375 -30.609375 "/></g></g></g><g fill="#5271ff" fill-opacity="1"><g transform="translate(372.271699, 149.859529)"><g><path d="M 10.953125 -13.75 C 11.765625 -10.664062 13.050781 -8.347656 14.8125 -6.796875 C 16.582031 -5.253906 18.945312 -4.484375 21.90625 -4.484375 C 24.445312 -4.484375 26.367188 -5.0625 27.671875 -6.21875 C 28.984375 -7.375 29.640625 -9.054688 29.640625 -11.265625 C 29.640625 -12.648438 29.34375 -13.832031 28.75 -14.8125 C 28.15625 -15.800781 27.171875 -16.742188 25.796875 -17.640625 C 24.421875 -18.546875 22.070312 -19.726562 18.75 -21.1875 C 16.875 -22.007812 15.113281 -22.910156 13.46875 -23.890625 C 11.820312 -24.878906 10.382812 -25.992188 9.15625 -27.234375 C 7.9375 -28.472656 6.972656 -29.851562 6.265625 -31.375 C 5.554688 -32.90625 5.203125 -34.601562 5.203125 -36.46875 C 5.203125 -39.53125 6.082031 -42.179688 7.84375 -44.421875 C 9.613281 -46.660156 12.132812 -48.375 15.40625 -49.5625 C 18.6875 -50.75 22.429688 -51.34375 26.640625 -51.34375 C 29.117188 -51.34375 31.546875 -51.238281 33.921875 -51.03125 C 36.304688 -50.832031 39.378906 -50.394531 43.140625 -49.71875 L 43.140625 -37.84375 L 36.421875 -37.84375 C 35.640625 -40.019531 34.78125 -41.703125 33.84375 -42.890625 C 32.914062 -44.078125 31.890625 -44.898438 30.765625 -45.359375 C 29.648438 -45.816406 28.3125 -46.046875 26.75 -46.046875 C 24.5 -46.046875 22.710938 -45.535156 21.390625 -44.515625 C 20.066406 -43.503906 19.40625 -42.082031 19.40625 -40.25 C 19.40625 -38.957031 19.640625 -37.851562 20.109375 -36.9375 C 20.585938 -36.019531 21.4375 -35.125 22.65625 -34.25 C 23.882812 -33.382812 26.25 -32.222656 29.75 -30.765625 C 32.9375 -29.441406 35.53125 -28.054688 37.53125 -26.609375 C 39.539062 -25.171875 41.070312 -23.507812 42.125 -21.625 C 43.175781 -19.738281 43.703125 -17.539062 43.703125 -15.03125 C 43.703125 -12.28125 43.191406 -9.910156 42.171875 -7.921875 C 41.160156 -5.929688 39.738281 -4.289062 37.90625 -3 C 36.070312 -1.707031 33.867188 -0.75 31.296875 -0.125 C 28.734375 0.5 25.910156 0.8125 22.828125 0.8125 C 17.222656 0.8125 10.988281 0.015625 4.125 -1.578125 L 4.125 -13.75 Z M 10.953125 -13.75 "/></g></g></g><g fill="#5271ff" fill-opacity="1"><g transform="translate(420.153371, 149.859529)"><g><path d="M 34.484375 -6.671875 L 33.71875 -6.921875 C 30.9375 -4.210938 28.226562 -2.242188 25.59375 -1.015625 C 22.96875 0.203125 20.175781 0.8125 17.21875 0.8125 C 14.300781 0.8125 11.765625 0.28125 9.609375 -0.78125 C 7.453125 -1.851562 5.820312 -3.335938 4.71875 -5.234375 C 3.613281 -7.140625 3.0625 -9.332031 3.0625 -11.8125 C 3.0625 -16.8125 5.515625 -20.742188 10.421875 -23.609375 C 15.328125 -26.484375 22.769531 -28.289062 32.75 -29.03125 L 32.75 -33.875 C 32.75 -37.03125 32.390625 -39.46875 31.671875 -41.1875 C 30.960938 -42.90625 30.046875 -44.109375 28.921875 -44.796875 C 27.804688 -45.492188 26.46875 -45.84375 24.90625 -45.84375 C 23.34375 -45.84375 21.992188 -45.570312 20.859375 -45.03125 C 19.722656 -44.488281 18.695312 -43.460938 17.78125 -41.953125 C 16.863281 -40.441406 16.179688 -38.34375 15.734375 -35.65625 L 6.109375 -35.65625 L 6.109375 -44.9375 C 9.234375 -46.320312 11.832031 -47.390625 13.90625 -48.140625 C 15.976562 -48.890625 18.023438 -49.507812 20.046875 -50 C 22.066406 -50.488281 23.875 -50.832031 25.46875 -51.03125 C 27.0625 -51.238281 28.660156 -51.34375 30.265625 -51.34375 C 34.367188 -51.34375 37.648438 -50.800781 40.109375 -49.71875 C 42.578125 -48.632812 44.421875 -46.867188 45.640625 -44.421875 C 46.867188 -41.972656 47.484375 -38.59375 47.484375 -34.28125 L 47.484375 -14.421875 C 47.484375 -12.171875 47.53125 -10.4375 47.625 -9.21875 C 47.726562 -8 47.890625 -7.09375 48.109375 -6.5 C 48.335938 -5.90625 48.617188 -5.425781 48.953125 -5.0625 C 49.296875 -4.707031 49.710938 -4.421875 50.203125 -4.203125 C 50.691406 -3.984375 51.617188 -3.703125 52.984375 -3.359375 L 52.984375 0 L 34.03125 0 Z M 32.8125 -24.046875 C 27.539062 -23.910156 23.640625 -22.925781 21.109375 -21.09375 C 18.578125 -19.257812 17.3125 -16.578125 17.3125 -13.046875 C 17.3125 -10.929688 17.890625 -9.320312 19.046875 -8.21875 C 20.203125 -7.125 21.800781 -6.578125 23.84375 -6.578125 C 25.40625 -6.578125 26.878906 -6.988281 28.265625 -7.8125 C 29.660156 -8.644531 30.765625 -9.757812 31.578125 -11.15625 C 32.398438 -12.550781 32.8125 -14.03125 32.8125 -15.59375 Z M 32.8125 -24.046875 "/></g></g></g><g fill="#5271ff" fill-opacity="1"><g transform="translate(475.981364, 149.859529)"><g><path d="M 23.375 -43.25 L 24.046875 -43.09375 C 26.523438 -46.019531 29.070312 -48.125 31.6875 -49.40625 C 34.300781 -50.695312 37.132812 -51.34375 40.1875 -51.34375 C 42.257812 -51.34375 44.4375 -51.125 46.71875 -50.6875 L 46.71875 -36.625 L 37.5 -36.625 C 36.914062 -38.59375 36.15625 -40.101562 35.21875 -41.15625 C 34.289062 -42.207031 33.046875 -42.734375 31.484375 -42.734375 C 30.734375 -42.734375 29.90625 -42.503906 29 -42.046875 C 28.101562 -41.585938 27.273438 -40.941406 26.515625 -40.109375 C 25.753906 -39.285156 25.210938 -38.4375 24.890625 -37.5625 C 24.566406 -36.695312 24.351562 -35.820312 24.25 -34.9375 C 24.144531 -34.0625 24.09375 -32.738281 24.09375 -30.96875 L 24.09375 -14.71875 C 24.09375 -11.488281 24.210938 -9.226562 24.453125 -7.9375 C 24.691406 -6.65625 25.164062 -5.648438 25.875 -4.921875 C 26.59375 -4.191406 27.800781 -3.671875 29.5 -3.359375 L 29.5 0 L 4.375 0 L 4.375 -3.359375 C 6.007812 -3.804688 7.140625 -4.382812 7.765625 -5.09375 C 8.398438 -5.800781 8.828125 -6.765625 9.046875 -7.984375 C 9.265625 -9.210938 9.375 -11.441406 9.375 -14.671875 L 9.375 -35.609375 C 9.375 -38.117188 9.332031 -39.976562 9.25 -41.1875 C 9.164062 -42.394531 8.960938 -43.363281 8.640625 -44.09375 C 8.316406 -44.820312 7.820312 -45.414062 7.15625 -45.875 C 6.488281 -46.332031 5.34375 -46.726562 3.71875 -47.0625 L 3.71875 -50.53125 L 17.671875 -50.9375 L 24.09375 -50.9375 Z M 23.375 -43.25 "/></g></g></g><g fill="#5271ff" fill-opacity="1"><g transform="translate(524.117733, 149.859529)"><g/></g></g><g fill="#5271ff" fill-opacity="1"><g transform="translate(547.090771, 149.859529)"><g><path d="M 55.46875 -67.953125 L 55.46875 -53.1875 L 48.546875 -53.1875 C 47.734375 -57.019531 46.441406 -59.84375 44.671875 -61.65625 C 42.910156 -63.476562 40.601562 -64.390625 37.75 -64.390625 C 32.382812 -64.390625 28.328125 -61.816406 25.578125 -56.671875 C 22.828125 -51.523438 21.453125 -43.894531 21.453125 -33.78125 C 21.453125 -24.363281 22.707031 -17.234375 25.21875 -12.390625 C 27.726562 -7.554688 31.410156 -5.140625 36.265625 -5.140625 C 38.742188 -5.140625 40.765625 -5.554688 42.328125 -6.390625 C 43.890625 -7.222656 45.140625 -8.472656 46.078125 -10.140625 C 47.015625 -11.804688 47.820312 -14.148438 48.5 -17.171875 L 55.46875 -17.171875 L 55.46875 -1.734375 C 51.738281 -0.847656 48.328125 -0.203125 45.234375 0.203125 C 42.140625 0.609375 38.929688 0.8125 35.609375 0.8125 C 28.546875 0.8125 22.78125 -0.457031 18.3125 -3 C 13.84375 -5.550781 10.546875 -9.398438 8.421875 -14.546875 C 6.304688 -19.691406 5.25 -26.203125 5.25 -34.078125 C 5.25 -41.453125 6.492188 -47.863281 8.984375 -53.3125 C 11.484375 -58.757812 15.160156 -62.957031 20.015625 -65.90625 C 24.867188 -68.863281 30.675781 -70.34375 37.4375 -70.34375 C 40.875 -70.34375 43.984375 -70.15625 46.765625 -69.78125 C 49.546875 -69.414062 52.445312 -68.804688 55.46875 -67.953125 Z M 55.46875 -67.953125 "/></g></g></g><g fill="#5271ff" fill-opacity="1"><g transform="translate(606.891908, 149.859529)"><g><path d="M 23.6875 -70.859375 L 23.6875 -58.375 L 9.734375 -58.375 L 9.734375 -70.859375 Z M 4.328125 -3.359375 C 5.992188 -3.804688 7.140625 -4.382812 7.765625 -5.09375 C 8.398438 -5.800781 8.828125 -6.765625 9.046875 -7.984375 C 9.265625 -9.210938 9.375 -11.441406 9.375 -14.671875 L 9.375 -38.359375 C 9.375 -40.023438 9.296875 -41.363281 9.140625 -42.375 C 8.992188 -43.394531 8.707031 -44.210938 8.28125 -44.828125 C 7.851562 -45.441406 7.273438 -45.910156 6.546875 -46.234375 C 5.816406 -46.554688 4.875 -46.832031 3.71875 -47.0625 L 3.71875 -50.53125 L 17.734375 -50.9375 L 24.09375 -50.9375 L 24.09375 -14.71875 C 24.09375 -12.820312 24.117188 -11.351562 24.171875 -10.3125 C 24.222656 -9.28125 24.296875 -8.484375 24.390625 -7.921875 C 24.492188 -7.359375 24.640625 -6.851562 24.828125 -6.40625 C 25.015625 -5.96875 25.257812 -5.5625 25.5625 -5.1875 C 25.875 -4.820312 26.316406 -4.484375 26.890625 -4.171875 C 27.472656 -3.867188 28.238281 -3.597656 29.1875 -3.359375 L 29.1875 0 L 4.328125 0 Z M 4.328125 -3.359375 "/></g></g></g><g fill="#5271ff" fill-opacity="1"><g transform="translate(639.695948, 149.859529)"><g><path d="M 23.4375 9.125 C 23.4375 11.664062 23.570312 13.460938 23.84375 14.515625 C 24.113281 15.566406 24.597656 16.398438 25.296875 17.015625 C 25.992188 17.628906 27.222656 18.140625 28.984375 18.546875 L 28.984375 21.90625 L 3.609375 21.90625 L 3.609375 18.546875 C 5.210938 18.066406 6.328125 17.535156 6.953125 16.953125 C 7.578125 16.378906 8.023438 15.570312 8.296875 14.53125 C 8.578125 13.5 8.71875 11.695312 8.71875 9.125 L 8.71875 -35.453125 C 8.71875 -37.867188 8.691406 -39.582031 8.640625 -40.59375 C 8.585938 -41.613281 8.46875 -42.476562 8.28125 -43.1875 C 8.09375 -43.90625 7.828125 -44.492188 7.484375 -44.953125 C 7.148438 -45.410156 6.648438 -45.804688 5.984375 -46.140625 C 5.328125 -46.484375 4.351562 -46.789062 3.0625 -47.0625 L 3.0625 -50.53125 L 17.171875 -50.9375 L 23.4375 -50.9375 L 22.671875 -43.5625 L 23.28125 -43.40625 C 26.195312 -46.21875 28.921875 -48.242188 31.453125 -49.484375 C 33.984375 -50.722656 36.59375 -51.34375 39.28125 -51.34375 C 45.320312 -51.34375 49.851562 -49.210938 52.875 -44.953125 C 55.894531 -40.691406 57.40625 -34.316406 57.40625 -25.828125 C 57.40625 -19.953125 56.515625 -15.035156 54.734375 -11.078125 C 52.953125 -7.117188 50.296875 -4.144531 46.765625 -2.15625 C 43.234375 -0.175781 38.882812 0.8125 33.71875 0.8125 C 30.21875 0.8125 26.789062 0.367188 23.4375 -0.515625 Z M 23.4375 -16.703125 C 23.4375 -12.523438 24.15625 -9.441406 25.59375 -7.453125 C 27.039062 -5.472656 29.273438 -4.484375 32.296875 -4.484375 C 35.421875 -4.484375 37.804688 -6.117188 39.453125 -9.390625 C 41.097656 -12.671875 41.921875 -17.351562 41.921875 -23.4375 C 41.921875 -30.195312 41.179688 -35.203125 39.703125 -38.453125 C 38.234375 -41.710938 35.9375 -43.34375 32.8125 -43.34375 C 31.28125 -43.34375 29.789062 -42.953125 28.34375 -42.171875 C 26.90625 -41.398438 25.726562 -40.289062 24.8125 -38.84375 C 23.894531 -37.394531 23.4375 -35.773438 23.4375 -33.984375 Z M 23.4375 -16.703125 "/></g></g></g><g fill="#5271ff" fill-opacity="1"><g transform="translate(701.993082, 149.859529)"><g><path d="M 23.640625 -43.8125 C 26.722656 -46.5625 29.476562 -48.503906 31.90625 -49.640625 C 34.34375 -50.773438 36.832031 -51.34375 39.375 -51.34375 C 43.113281 -51.34375 46 -50.65625 48.03125 -49.28125 C 50.070312 -47.90625 51.554688 -45.925781 52.484375 -43.34375 C 53.421875 -40.769531 53.890625 -37.425781 53.890625 -33.3125 L 53.890625 -14.71875 C 53.890625 -13.226562 53.914062 -11.828125 53.96875 -10.515625 C 54.019531 -9.210938 54.144531 -8.171875 54.34375 -7.390625 C 54.550781 -6.609375 54.832031 -5.96875 55.1875 -5.46875 C 55.550781 -4.976562 56.054688 -4.5625 56.703125 -4.21875 C 57.347656 -3.882812 58.128906 -3.597656 59.046875 -3.359375 L 59.046875 0 L 34.328125 0 L 34.328125 -3.359375 C 35.929688 -3.734375 37.03125 -4.273438 37.625 -4.984375 C 38.21875 -5.703125 38.625 -6.6875 38.84375 -7.9375 C 39.0625 -9.195312 39.171875 -11.441406 39.171875 -14.671875 L 39.171875 -27.96875 C 39.171875 -31.363281 39.0625 -34.003906 38.84375 -35.890625 C 38.625 -37.773438 38.25 -39.234375 37.71875 -40.265625 C 37.195312 -41.304688 36.519531 -42.078125 35.6875 -42.578125 C 34.851562 -43.085938 33.757812 -43.34375 32.40625 -43.34375 C 31.113281 -43.34375 29.757812 -42.941406 28.34375 -42.140625 C 26.9375 -41.347656 25.765625 -40.265625 24.828125 -38.890625 C 23.898438 -37.515625 23.4375 -36.046875 23.4375 -34.484375 L 23.4375 -14.71875 C 23.4375 -12.820312 23.457031 -11.351562 23.5 -10.3125 C 23.550781 -9.28125 23.628906 -8.484375 23.734375 -7.921875 C 23.835938 -7.359375 23.984375 -6.851562 24.171875 -6.40625 C 24.359375 -5.96875 24.601562 -5.5625 24.90625 -5.1875 C 25.21875 -4.820312 25.660156 -4.484375 26.234375 -4.171875 C 26.804688 -3.867188 27.570312 -3.597656 28.53125 -3.359375 L 28.53125 0 L 3.5625 0 L 3.5625 -3.359375 C 4.582031 -3.597656 5.378906 -3.878906 5.953125 -4.203125 C 6.535156 -4.523438 6.988281 -4.894531 7.3125 -5.3125 C 7.632812 -5.738281 7.910156 -6.285156 8.140625 -6.953125 C 8.378906 -7.617188 8.535156 -8.535156 8.609375 -9.703125 C 8.679688 -10.878906 8.71875 -12.550781 8.71875 -14.71875 L 8.71875 -54.453125 C 8.71875 -57.378906 8.691406 -59.53125 8.640625 -60.90625 C 8.585938 -62.28125 8.472656 -63.429688 8.296875 -64.359375 C 8.128906 -65.296875 7.875 -66.046875 7.53125 -66.609375 C 7.195312 -67.171875 6.707031 -67.617188 6.0625 -67.953125 C 5.414062 -68.296875 4.378906 -68.601562 2.953125 -68.875 L 2.953125 -72.234375 L 17.0625 -72.953125 L 23.4375 -72.953125 L 23.4375 -43.859375 Z M 23.640625 -43.8125 "/></g></g></g><g fill="#5271ff" fill-opacity="1"><g transform="translate(764.239241, 149.859529)"><g><path d="M 50.484375 -9.265625 C 47.015625 -5.597656 43.582031 -3 40.1875 -1.46875 C 36.789062 0.0507812 32.882812 0.8125 28.46875 0.8125 C 20.5625 0.8125 14.613281 -1.347656 10.625 -5.671875 C 6.632812 -10.003906 4.640625 -16.4375 4.640625 -24.96875 C 4.640625 -30.46875 5.664062 -35.210938 7.71875 -39.203125 C 9.769531 -43.191406 12.679688 -46.210938 16.453125 -48.265625 C 20.222656 -50.316406 24.601562 -51.34375 29.59375 -51.34375 C 32.6875 -51.34375 35.394531 -50.984375 37.71875 -50.265625 C 40.050781 -49.554688 42.046875 -48.566406 43.703125 -47.296875 C 45.367188 -46.023438 46.742188 -44.488281 47.828125 -42.6875 C 49.117188 -40.550781 50.085938 -38.109375 50.734375 -35.359375 C 51.410156 -32.535156 51.769531 -29.117188 51.8125 -25.109375 L 19.515625 -25.109375 C 19.546875 -18.960938 20.640625 -14.4375 22.796875 -11.53125 C 24.953125 -8.632812 28.238281 -7.1875 32.65625 -7.1875 C 35.238281 -7.1875 37.5625 -7.671875 39.625 -8.640625 C 41.695312 -9.609375 43.941406 -11.3125 46.359375 -13.75 Z M 36.734375 -30.609375 C 36.597656 -35.804688 35.914062 -39.675781 34.6875 -42.21875 C 33.46875 -44.769531 31.5 -46.046875 28.78125 -46.046875 C 26.164062 -46.046875 24.082031 -44.722656 22.53125 -42.078125 C 20.988281 -39.429688 20.066406 -35.609375 19.765625 -30.609375 Z M 36.734375 -30.609375 "/></g></g></g><g fill="#5271ff" fill-opacity="1"><g transform="translate(819.608785, 149.859529)"><g><path d="M 23.375 -43.25 L 24.046875 -43.09375 C 26.523438 -46.019531 29.070312 -48.125 31.6875 -49.40625 C 34.300781 -50.695312 37.132812 -51.34375 40.1875 -51.34375 C 42.257812 -51.34375 44.4375 -51.125 46.71875 -50.6875 L 46.71875 -36.625 L 37.5 -36.625 C 36.914062 -38.59375 36.15625 -40.101562 35.21875 -41.15625 C 34.289062 -42.207031 33.046875 -42.734375 31.484375 -42.734375 C 30.734375 -42.734375 29.90625 -42.503906 29 -42.046875 C 28.101562 -41.585938 27.273438 -40.941406 26.515625 -40.109375 C 25.753906 -39.285156 25.210938 -38.4375 24.890625 -37.5625 C 24.566406 -36.695312 24.351562 -35.820312 24.25 -34.9375 C 24.144531 -34.0625 24.09375 -32.738281 24.09375 -30.96875 L 24.09375 -14.71875 C 24.09375 -11.488281 24.210938 -9.226562 24.453125 -7.9375 C 24.691406 -6.65625 25.164062 -5.648438 25.875 -4.921875 C 26.59375 -4.191406 27.800781 -3.671875 29.5 -3.359375 L 29.5 0 L 4.375 0 L 4.375 -3.359375 C 6.007812 -3.804688 7.140625 -4.382812 7.765625 -5.09375 C 8.398438 -5.800781 8.828125 -6.765625 9.046875 -7.984375 C 9.265625 -9.210938 9.375 -11.441406 9.375 -14.671875 L 9.375 -35.609375 C 9.375 -38.117188 9.332031 -39.976562 9.25 -41.1875 C 9.164062 -42.394531 8.960938 -43.363281 8.640625 -44.09375 C 8.316406 -44.820312 7.820312 -45.414062 7.15625 -45.875 C 6.488281 -46.332031 5.34375 -46.726562 3.71875 -47.0625 L 3.71875 -50.53125 L 17.671875 -50.9375 L 24.09375 -50.9375 Z M 23.375 -43.25 "/></g></g></g><g fill="#5271ff" fill-opacity="1"><g transform="translate(867.75326, 149.859529)"><g/></g></g></svg>